<?xml version="1.0" standalone="no"?>
<!DOCTYPE svg PUBLIC "-//W3C//DTD SVG 20010904//EN"
 "http://www.w3.org/TR/2001/REC-SVG-20010904/DTD/svg10.dtd">
<svg version="1.0" xmlns="http://www.w3.org/2000/svg"
 width="146.000000pt" height="146.000000pt" viewBox="0 0 146.000000 146.000000"
 preserveAspectRatio="xMidYMid meet">
<metadata>
Created by potrace 1.11, written by Peter Selinger 2001-2013
</metadata>
<g transform="translate(0.000000,146.000000) scale(0.100000,-0.100000)"
fill="#000000" stroke="none">
<path d="M584 1446 c-145 -33 -266 -99 -368 -202 -150 -150 -224 -339 -213
-549 16 -316 217 -570 527 -667 108 -33 292 -33 400 0 251 79 422 250 502 502
33 108 33 292 0 400 -78 249 -250 422 -497 500 -90 28 -263 36 -351 16z m375
-61 c206 -70 369 -235 437 -441 26 -80 29 -103 29 -219 0 -116 -3 -139 -29
-219 -69 -209 -233 -373 -443 -442 -79 -26 -102 -29 -218 -29 -116 0 -139 3
-219 29 -209 69 -373 233 -442 443 -26 79 -29 102 -29 218 0 116 3 139 29 218
47 145 142 272 268 358 127 87 246 120 413 116 99 -3 134 -9 204 -32z"/>
<path d="M696 1328 c-28 -16 -19 -48 19 -64 23 -9 35 -21 35 -34 0 -29 -48
-27 -60 3 -8 21 -9 21 -9 -5 -1 -25 2 -28 33 -28 63 0 76 54 18 79 -17 8 -32
21 -32 28 0 17 47 17 53 1 4 -8 6 -7 6 3 1 20 -39 30 -63 17z"/>
<path d="M624 1293 c3 -21 6 -50 6 -65 0 -22 5 -28 23 -28 14 0 18 3 10 8 -6
4 -13 33 -15 65 -2 40 -7 57 -17 57 -10 0 -12 -9 -7 -37z"/>
<path d="M565 1303 c11 -30 17 -79 8 -68 -17 22 -72 55 -90 55 -12 0 -14 -3
-6 -8 13 -8 35 -91 27 -103 -2 -4 5 -5 16 -2 17 5 17 7 5 20 -8 8 -15 26 -15
41 1 23 2 25 13 11 16 -20 66 -53 72 -47 9 8 -17 118 -27 118 -6 0 -7 -8 -3
-17z"/>
<path d="M850 1300 c-30 -30 -25 -100 8 -100 12 0 13 3 4 12 -31 31 6 106 46
94 12 -4 22 -15 23 -24 0 -14 2 -13 8 3 15 36 -56 48 -89 15z"/>
<path d="M973 1268 c-2 -18 -11 -44 -22 -59 l-20 -26 40 -13 c29 -10 43 -10
51 -2 8 8 6 10 -8 6 -39 -9 -47 9 -26 64 17 43 17 52 5 56 -8 3 -15 6 -16 6
-1 0 -3 -15 -4 -32z"/>
<path d="M428 1274 c-3 -3 1 -19 9 -35 19 -38 11 -46 -30 -31 -41 15 -67 15
-67 2 0 -5 5 -9 12 -7 6 1 21 -16 32 -38 12 -22 22 -42 23 -44 1 -1 7 0 13 4
7 4 8 10 3 14 -15 11 -44 61 -34 61 5 0 25 -7 44 -15 55 -23 60 -19 32 30 -15
24 -24 49 -20 55 6 10 -7 14 -17 4z"/>
<path d="M1090 1230 c0 -10 -6 -23 -14 -27 -7 -4 -19 -19 -26 -32 -11 -22 -10
-27 14 -48 21 -17 32 -21 45 -14 27 15 73 79 61 86 -5 3 -10 2 -10 -4 0 -5
-12 -23 -26 -40 -28 -33 -61 -41 -70 -16 -8 19 21 64 47 73 19 7 19 8 -1 25
-19 16 -20 16 -20 -3z"/>
<path d="M278 1163 l-26 -28 39 -30 c21 -16 38 -37 39 -44 0 -10 12 -3 34 18
21 20 32 39 29 48 -4 11 -10 6 -19 -16 -14 -34 -25 -38 -44 -16 -14 17 -5 35
17 35 12 0 13 3 3 15 -11 13 -14 12 -29 -6 -16 -20 -18 -20 -31 -4 -13 15 -12
19 9 36 13 11 19 19 14 19 -5 0 -21 -12 -35 -27z"/>
<path d="M1210 1141 c0 -5 -22 -20 -48 -33 l-48 -24 17 -29 c26 -43 49 -52 68
-28 9 10 24 22 34 26 21 8 22 29 2 67 -16 30 -25 38 -25 21z m24 -37 c7 -19
-1 -34 -19 -34 -21 0 -28 19 -15 35 16 19 26 19 34 -1z m-46 -42 c3 -16 -2
-22 -17 -22 -26 0 -36 17 -20 36 16 19 33 13 37 -14z"/>
<path d="M623 1115 c-86 -26 -177 -97 -213 -166 l-12 -22 38 23 c22 13 41 27
44 31 3 3 16 10 30 14 21 7 22 6 10 -6 -8 -8 -31 -21 -50 -30 -60 -28 -99 -67
-111 -112 -17 -63 -15 -165 5 -228 19 -61 45 -82 146 -121 62 -24 78 -24 55 2
-22 25 -15 26 13 2 11 -9 30 -25 41 -35 15 -11 38 -17 76 -17 30 0 55 -3 55
-7 0 -5 -24 -7 -52 -5 l-53 4 35 -31 c80 -71 124 -75 237 -22 53 25 133 92
133 111 0 8 -122 -32 -130 -42 -8 -10 -160 -26 -154 -16 3 4 27 8 55 8 27 0
49 4 49 9 0 5 19 12 43 15 23 4 71 21 107 39 74 36 93 65 112 166 9 46 9 77 0
126 -16 84 -42 128 -92 150 -37 17 -53 35 -30 35 6 0 10 -4 10 -8 0 -5 11 -14
24 -20 23 -10 24 -10 9 18 -13 28 -57 66 -114 102 -71 45 -227 61 -316 33z
m168 -36 c16 -17 29 -35 29 -40 0 -5 15 -10 33 -10 30 -2 30 -2 5 -6 -16 -2
-28 -5 -28 -6 0 -7 50 -149 63 -180 l16 -37 89 0 c49 0 91 -2 94 -5 2 -3 3
-18 0 -35 -3 -24 -9 -30 -28 -30 -21 0 -24 -5 -24 -35 0 -31 -3 -35 -25 -35
-14 0 -25 -4 -25 -10 0 -14 55 -40 87 -40 27 -1 27 -1 9 -15 -33 -25 -64 -17
-111 26 -39 36 -48 40 -87 36 l-43 -4 50 -1 c36 -2 46 -5 35 -12 -8 -5 -10
-10 -4 -10 5 0 10 -11 10 -25 0 -25 -2 -26 -45 -21 -26 2 -61 5 -79 5 l-34 1
3 88 c3 118 7 128 53 124 38 -4 42 2 26 42 -8 22 -16 26 -49 26 l-39 0 -7 -60
-7 -60 -66 0 c-106 0 -108 1 -104 70 3 51 1 59 -16 64 -11 4 -24 6 -28 5 -5
-1 -16 -1 -24 1 -11 1 -9 4 5 10 18 8 18 9 2 9 -12 1 -17 7 -15 19 3 15 20 17
156 20 83 1 152 4 152 7 0 18 -46 114 -62 133 -13 13 -17 22 -9 22 7 0 26 -14
42 -31z m-124 -55 c-3 -3 -12 -4 -19 -1 -8 3 -5 6 6 6 11 1 17 -2 13 -5z m-60
-10 c-3 -3 -12 -4 -19 -1 -8 3 -5 6 6 6 11 1 17 -2 13 -5z m353 -9 c47 -18 27
-18 -30 -1 -25 8 -36 15 -25 15 11 0 36 -7 55 -14z m-393 -1 c-3 -3 -12 -4
-19 -1 -8 3 -5 6 6 6 11 1 17 -2 13 -5z m193 -314 l0 -50 -42 -1 c-44 0 -42
-3 17 -25 l20 -7 -20 -5 -20 -5 20 -9 c15 -6 11 -7 -15 -3 -25 4 -31 2 -20 -5
8 -5 23 -10 32 -10 21 0 19 -22 -2 -32 -33 -15 -195 -8 -248 10 -29 10 -55 21
-58 24 -10 11 -33 99 -24 93 5 -3 18 2 28 12 64 60 64 60 215 62 l117 1 0 -50z"/>
<path d="M608 933 c12 -2 32 -2 45 0 12 2 2 4 -23 4 -25 0 -35 -2 -22 -4z"/>
<path d="M713 933 c20 -2 54 -2 75 0 20 2 3 4 -38 4 -41 0 -58 -2 -37 -4z"/>
<path d="M663 913 c26 -2 68 -2 95 0 26 2 4 3 -48 3 -52 0 -74 -1 -47 -3z"/>
<path d="M768 893 c12 -2 32 -2 45 0 12 2 2 4 -23 4 -25 0 -35 -2 -22 -4z"/>
<path d="M798 603 c7 -3 16 -2 19 1 4 3 -2 6 -13 5 -11 0 -14 -3 -6 -6z"/>
<path d="M610 640 c8 -5 20 -10 25 -10 6 0 3 5 -5 10 -8 5 -19 10 -25 10 -5 0
-3 -5 5 -10z"/>
<path d="M600 621 c13 -10 13 -11 0 -11 -9 -1 -5 -6 10 -15 34 -19 52 -18 20
1 -20 12 -21 14 -5 11 11 -3 29 -8 40 -12 12 -4 11 -1 -5 8 -32 18 -82 33 -60
18z"/>
<path d="M670 615 c14 -8 30 -14 35 -14 6 0 -1 6 -15 14 -14 8 -29 14 -35 14
-5 0 1 -6 15 -14z"/>
<path d="M600 575 c14 -8 32 -14 40 -14 8 0 0 6 -19 14 -42 19 -54 19 -21 0z"/>
<path d="M668 573 c6 -2 10 -9 6 -14 -3 -5 -1 -9 5 -9 5 0 18 -3 28 -7 13 -4
12 -1 -6 15 -13 12 -29 22 -35 21 -6 0 -6 -3 2 -6z"/>
<path d="M211 1059 c-13 -39 -14 -69 -2 -69 5 0 7 9 4 20 -6 23 -6 23 53 9 24
-6 44 -16 44 -23 0 -12 20 14 20 27 0 4 -10 7 -22 8 -13 0 -38 6 -57 13 -32
11 -33 13 -17 29 14 14 15 17 3 17 -8 0 -20 -14 -26 -31z"/>
<path d="M457 474 c55 -64 141 -111 218 -120 l50 -5 -49 45 c-26 26 -59 49
-73 52 -13 4 -22 12 -20 19 4 8 -2 10 -16 8 -12 -3 -53 9 -90 26 l-68 30 48
-55z"/>
<path d="M245 482 c-22 -7 -48 -11 -57 -8 -19 4 -22 -2 -12 -28 4 -11 11 -13
30 -6 20 8 24 7 24 -10 0 -11 7 -20 15 -20 12 0 14 4 7 17 -7 11 -6 21 3 30
18 17 22 17 28 -7 8 -33 -2 -54 -38 -79 -19 -13 -32 -28 -29 -33 3 -5 14 -2
25 8 25 22 32 14 19 -21 -7 -18 -7 -32 -1 -38 5 -5 11 2 16 21 5 23 10 29 25
25 29 -8 36 24 15 63 -10 19 -21 49 -24 67 l-6 32 -40 -13z m71 -103 c9 -16
-12 -33 -31 -25 -14 5 -15 9 -5 21 15 18 26 19 36 4z"/>
<path d="M1165 468 c-4 -18 -9 -41 -12 -52 -3 -12 -1 -16 6 -12 10 6 53 -2 93
-19 13 -5 17 2 23 35 5 29 3 46 -5 53 -10 9 -11 9 -6 -1 12 -20 -2 -62 -20
-62 -20 0 -30 30 -13 41 12 8 12 11 -1 19 -24 15 -27 12 -22 -22 4 -26 2 -30
-12 -25 -10 4 -20 7 -22 7 -9 0 -3 37 7 47 7 7 7 13 1 17 -6 3 -13 -8 -17 -26z"/>
<path d="M1108 356 c-6 -11 -7 -18 -3 -14 5 4 27 -8 50 -27 l42 -34 22 30 c12
17 19 35 14 42 -5 8 -9 4 -13 -12 -8 -36 -24 -36 -64 2 -36 34 -37 35 -48 13z"/>
<path d="M338 288 c-26 -17 -45 -35 -42 -39 3 -5 12 -2 21 6 12 12 18 13 29 4
8 -6 13 -18 12 -27 -2 -8 2 -17 9 -19 9 -3 33 72 33 102 0 10 -16 2 -62 -27z
m32 -14 c0 -8 -5 -12 -10 -9 -6 4 -8 11 -5 16 9 14 15 11 15 -7z"/>
<path d="M1008 292 c-26 -14 -45 -29 -42 -34 3 -5 3 -22 -1 -39 l-7 -30 -21
28 c-12 15 -21 31 -20 34 1 4 -6 5 -17 2 -19 -5 -18 -6 5 -25 14 -11 25 -25
25 -32 0 -7 8 -21 19 -30 17 -16 19 -15 25 15 3 17 6 44 6 60 0 17 5 29 13 29
15 0 47 -51 47 -74 0 -9 4 -16 9 -16 22 0 20 22 -4 57 -29 43 -31 53 -11 53 8
0 25 -15 37 -32 12 -18 24 -34 25 -36 7 -10 64 31 64 45 0 14 -3 13 -16 -5 -8
-12 -21 -22 -27 -22 -13 0 -53 59 -49 73 3 11 -9 7 -60 -21z"/>
<path d="M440 266 c0 -13 -4 -28 -10 -31 -5 -3 -10 -15 -10 -25 0 -10 -5 -20
-12 -22 -7 -3 -6 -7 5 -11 12 -5 17 -1 17 12 0 26 10 51 21 51 5 0 14 -20 20
-45 6 -25 15 -45 19 -45 4 0 13 20 20 45 7 25 17 45 21 45 5 0 9 5 9 10 0 6
-7 10 -15 10 -8 0 -14 -3 -13 -7 1 -5 -2 -21 -7 -37 -8 -28 -8 -28 -24 20 -19
53 -41 70 -41 30z"/>
<path d="M540 221 c-25 -48 0 -92 53 -90 29 2 30 2 5 6 -40 6 -51 25 -39 67
10 39 -1 49 -19 17z"/>
<path d="M626 225 c4 -8 8 -15 10 -15 2 0 4 7 4 15 0 8 -4 15 -10 15 -5 0 -7
-7 -4 -15z"/>
<path d="M661 226 c-23 -28 -19 -76 10 -98 51 -39 115 20 87 80 -10 21 -22 28
-49 30 -23 2 -40 -2 -48 -12z m63 -2 c11 -4 16 -19 16 -45 0 -33 -4 -40 -24
-45 -35 -9 -46 2 -46 45 0 50 13 61 54 45z"/>
<path d="M768 232 c7 -5 15 -32 19 -60 4 -38 10 -52 21 -52 13 0 13 3 4 12 -7
7 -12 27 -12 45 l0 32 40 -42 39 -42 0 30 c-1 17 -5 44 -10 60 -8 29 -8 28 -6
-7 2 -21 0 -38 -4 -38 -4 0 -19 16 -33 35 -17 21 -36 35 -49 35 -15 0 -18 -3
-9 -8z"/>
</g>
</svg>
